<svg width="128" height="130" viewBox="0 0 128 130" fill="none" xmlns="http://www.w3.org/2000/svg">
<g filter="url(#filter0_dd)">
<path d="M52.8545 6.66251C58.4571 -0.707968 69.5429 -0.707967 75.1455 6.66251L84.4803 18.9429C86.1444 21.1321 88.4163 22.7827 91.0125 23.6888L105.576 28.7719C114.318 31.8227 117.743 42.366 112.465 49.9719L103.67 62.6447C102.102 64.9038 101.234 67.5746 101.175 70.3238L100.841 85.7457C100.641 95.0016 91.6722 101.518 82.8074 98.848L68.0371 94.3998C65.4041 93.6069 62.5959 93.6069 59.9629 94.3998L45.1926 98.848C36.3278 101.518 27.3591 95.0016 27.1588 85.7457L26.825 70.3238C26.7655 67.5746 25.8977 64.9038 24.3299 62.6447L15.5352 49.9719C10.2568 42.366 13.6825 31.8227 22.4235 28.7719L36.9875 23.6888C39.5837 22.7827 41.8556 21.1321 43.5197 18.9429L52.8545 6.66251Z" fill="#E75187"/>
</g>
<defs>
<filter id="filter0_dd" x="0.0304871" y="0.134644" width="127.939" height="129.317" filterUnits="userSpaceOnUse" color-interpolation-filters="sRGB">
<feFlood flood-opacity="0" result="BackgroundImageFix"/>
<feColorMatrix in="SourceAlpha" type="matrix" values="0 0 0 0 0 0 0 0 0 0 0 0 0 0 0 0 0 0 127 0"/>
<feOffset dy="17"/>
<feGaussianBlur stdDeviation="6.5"/>
<feColorMatrix type="matrix" values="0 0 0 0 0.766667 0 0 0 0 0.766667 0 0 0 0 0.766667 0 0 0 0.58 0"/>
<feBlend mode="normal" in2="BackgroundImageFix" result="effect1_dropShadow"/>
<feColorMatrix in="SourceAlpha" type="matrix" values="0 0 0 0 0 0 0 0 0 0 0 0 0 0 0 0 0 0 127 0"/>
<feOffset dy="1"/>
<feGaussianBlur stdDeviation="1"/>
<feColorMatrix type="matrix" values="0 0 0 0 0.691667 0 0 0 0 0.648438 0 0 0 0 0.648438 0 0 0 0.63 0"/>
<feBlend mode="normal" in2="effect1_dropShadow" result="effect2_dropShadow"/>
<feBlend mode="normal" in="SourceGraphic" in2="effect2_dropShadow" result="shape"/>
</filter>
</defs>
</svg>
