<svg width="56" height="35" viewBox="0 0 56 35" fill="none" xmlns="http://www.w3.org/2000/svg">
<circle cx="28.0441" cy="17.0442" r="10.3423" fill="#C4C4C4"/>
<path d="M10.9146 17.131C10.9146 12.0772 16.039 8.63677 20.7166 10.5502L30.5884 14.5884C31.5904 14.9983 32.2451 15.9735 32.2451 17.0562V17.0562C32.2452 18.1263 31.6054 19.0928 30.6202 19.5107L20.8016 23.6764C16.1128 25.6657 10.9146 22.2243 10.9146 17.131V17.131Z" fill="#C4C4C4"/>
<path d="M10.9146 7.50331C10.9146 7.04386 11.3804 6.73109 11.8057 6.90505L31.8435 15.1019C32.0864 15.2012 32.2451 15.4377 32.2451 15.7001V18.3934C32.2451 18.6528 32.09 18.8871 31.8512 18.9884L11.8134 27.4898C11.3871 27.6706 10.9146 27.3577 10.9146 26.8947L10.9146 7.50331Z" fill="#C4C4C4"/>
<path d="M45.3347 17.131C45.3347 12.0772 40.2102 8.63677 35.5326 10.5502L25.6609 14.5884C24.6588 14.9983 24.0041 15.9735 24.0041 17.0562V17.0562C24.0041 18.1263 24.6439 19.0928 25.629 19.5107L35.4476 23.6764C40.1364 25.6657 45.3347 22.2243 45.3347 17.131V17.131Z" fill="#C4C4C4"/>
<path d="M45.3347 7.50331C45.3347 7.04386 44.8688 6.73109 44.4436 6.90505L24.4058 15.1019C24.1628 15.2012 24.0041 15.4377 24.0041 15.7001V18.3934C24.0041 18.6528 24.1592 18.8871 24.398 18.9884L44.4359 27.4898C44.8621 27.6706 45.3347 27.3577 45.3347 26.8947L45.3347 7.50331Z" fill="#C4C4C4"/>
</svg>
