<svg width="228" height="254" viewBox="0 0 228 254" fill="none" xmlns="http://www.w3.org/2000/svg">
<g filter="url(#filter0_bii)">
<path d="M211 28C211 12.536 198.464 0 183 0H45C29.536 0 17 12.536 17 28V51.9152C17 54.1712 18.8288 56 21.0848 56C24.6122 56 26.5403 60.2243 24.4038 63.031C9.1194 83.1106 0 108.453 0 136C0 201.17 51.0395 254 114 254C176.96 254 228 201.17 228 136C228 108.453 218.881 83.1106 203.596 63.031C201.46 60.2243 203.388 56 206.915 56C209.171 56 211 54.1712 211 51.9152V28Z" fill="#F06780" fill-opacity="0.14"/>
</g>
<path d="M68.4216 214.048C64.6394 210.05 67.6798 203.484 73.175 203.782C75.5197 203.91 77.7286 202.677 78.8521 200.616C81.4853 195.783 88.6695 196.646 90.0839 201.964C90.6874 204.233 92.5419 205.953 94.85 206.385C100.26 207.396 101.659 214.495 97.0383 217.484C95.0666 218.759 94.0038 221.054 94.3067 223.382C95.0169 228.84 88.6977 232.365 84.4273 228.893C82.6053 227.412 80.094 227.111 77.9731 228.118C73.0023 230.48 67.6972 225.56 69.6791 220.425C70.5246 218.235 70.0354 215.753 68.4216 214.048Z" fill="#C6CEF8"/>
<path d="M146.797 195.137C149.539 190.366 156.702 191.391 157.996 196.74C158.547 199.023 160.362 200.784 162.66 201.268C168.046 202.401 169.284 209.53 164.596 212.413C162.596 213.644 161.481 215.914 161.732 218.249C162.318 223.721 155.92 227.102 151.73 223.534C149.942 222.012 147.438 221.654 145.295 222.613C140.272 224.862 135.08 219.822 137.177 214.734C138.072 212.563 137.639 210.071 136.065 208.329C132.374 204.247 135.563 197.752 141.05 198.174C143.391 198.355 145.627 197.173 146.797 195.137Z" fill="#E3F863"/>
<path d="M30.3157 179.331C28.8144 174.036 34.5496 169.624 39.2821 172.433C41.3013 173.632 43.8297 173.563 45.7802 172.255C50.3518 169.191 56.32 173.283 55.111 178.651C54.5951 180.942 55.4423 183.325 57.2884 184.776C61.615 188.177 59.5684 195.118 54.0887 195.627C51.7506 195.844 49.7458 197.386 48.9362 199.591C47.0387 204.756 39.8056 204.955 37.628 199.901C36.6989 197.744 34.6126 196.314 32.2662 196.225C26.7668 196.017 24.3432 189.199 28.477 185.566C30.2408 184.016 30.9562 181.59 30.3157 179.331Z" fill="#7BFF65"/>
<path d="M117.441 169.416C121.302 165.494 127.971 168.299 127.868 173.802C127.825 176.149 129.134 178.313 131.235 179.363C136.158 181.823 135.551 189.033 130.286 190.635C128.04 191.319 126.387 193.233 126.037 195.555C125.219 200.997 118.174 202.648 115.023 198.136C113.679 196.211 111.347 195.231 109.031 195.616C103.603 196.52 99.8554 190.33 103.173 185.939C104.588 184.065 104.801 181.545 103.718 179.461C101.181 174.577 105.91 169.101 111.112 170.899C113.331 171.666 115.793 171.089 117.441 169.416Z" fill="#E751BD"/>
<path d="M178.818 172.262C179.043 166.764 185.868 164.361 189.489 168.506C191.033 170.274 193.457 170.997 195.718 170.363C201.017 168.878 205.412 174.626 202.588 179.35C201.384 181.366 201.445 183.895 202.747 185.849C205.797 190.43 201.688 196.386 196.322 195.16C194.033 194.638 191.647 195.478 190.191 197.319C186.777 201.635 179.842 199.568 179.35 194.087C179.14 191.748 177.604 189.738 175.402 188.922C170.242 187.009 170.066 179.775 175.126 177.613C177.286 176.69 178.722 174.608 178.818 172.262Z" fill="#E75187"/>
<defs>
<filter id="filter0_bii" x="-16.0667" y="-16.0667" width="260.133" height="286.133" filterUnits="userSpaceOnUse" color-interpolation-filters="sRGB">
<feFlood flood-opacity="0" result="BackgroundImageFix"/>
<feGaussianBlur in="BackgroundImage" stdDeviation="1.28533"/>
<feComposite in2="SourceAlpha" operator="in" result="effect1_backgroundBlur"/>
<feBlend mode="normal" in="SourceGraphic" in2="effect1_backgroundBlur" result="shape"/>
<feColorMatrix in="SourceAlpha" type="matrix" values="0 0 0 0 0 0 0 0 0 0 0 0 0 0 0 0 0 0 127 0" result="hardAlpha"/>
<feOffset dx="-16.0667" dy="16.0667"/>
<feGaussianBlur stdDeviation="8.03333"/>
<feComposite in2="hardAlpha" operator="arithmetic" k2="-1" k3="1"/>
<feColorMatrix type="matrix" values="0 0 0 0 1 0 0 0 0 1 0 0 0 0 1 0 0 0 0.14 0"/>
<feBlend mode="normal" in2="shape" result="effect2_innerShadow"/>
<feColorMatrix in="SourceAlpha" type="matrix" values="0 0 0 0 0 0 0 0 0 0 0 0 0 0 0 0 0 0 127 0" result="hardAlpha"/>
<feOffset dx="16.0667" dy="-16.0667"/>
<feGaussianBlur stdDeviation="8.03333"/>
<feComposite in2="hardAlpha" operator="arithmetic" k2="-1" k3="1"/>
<feColorMatrix type="matrix" values="0 0 0 0 0.715667 0 0 0 0 0.30714 0 0 0 0 0.380675 0 0 0 0.14 0"/>
<feBlend mode="normal" in2="effect2_innerShadow" result="effect3_innerShadow"/>
</filter>
</defs>
</svg>
