<svg width="28" height="31" viewBox="0 0 28 31" fill="none" xmlns="http://www.w3.org/2000/svg">
    <g filter="url(#ji_filter0_d)">
        <path d="M26.0614 3.19685C26.0614 1.43128 24.6301 0 22.8645 0H7.13545C5.36988 0 3.9386 1.43128 3.9386 3.19685V5.92763C3.9386 6.18503 4.14726 6.3937 4.40467 6.3937C4.807 6.3937 5.02702 6.87539 4.7835 7.19565C3.04017 9.48833 2 12.3821 2 15.5276C2 22.9682 7.8203 29 15 29C22.1797 29 28 22.9682 28 15.5276C28 12.3821 26.9598 9.48833 25.2165 7.19565C24.973 6.87539 25.193 6.3937 25.5953 6.3937C25.8527 6.3937 26.0614 6.18503 26.0614 5.92763V3.19685Z" fill="#F2F2F2"/>
    </g>
    <defs>
        <filter id="ji_filter0_d" x="0" y="0" width="28" height="31" filterUnits="userSpaceOnUse" color-interpolation-filters="sRGB">
            <feFlood flood-opacity="0" result="BackgroundImageFix"/>
            <feColorMatrix in="SourceAlpha" type="matrix" values="0 0 0 0 0 0 0 0 0 0 0 0 0 0 0 0 0 0 127 0" result="hardAlpha"/>
            <feOffset dx="-1" dy="1"/>
            <feGaussianBlur stdDeviation="0.5"/>
            <feColorMatrix type="matrix" values="0 0 0 0 0 0 0 0 0 0 0 0 0 0 0 0 0 0 0.25 0"/>
            <feBlend mode="normal" in2="BackgroundImageFix" result="effect1_dropShadow"/>
            <feBlend mode="normal" in="SourceGraphic" in2="effect1_dropShadow" result="shape"/>
        </filter>
    </defs>
</svg>
