<svg width="26" height="29" viewBox="0 0 26 29" fill="none" xmlns="http://www.w3.org/2000/svg">
<path d="M24.0614 3.19685C24.0614 1.43128 22.6301 0 20.8645 0H5.13545C3.36988 0 1.9386 1.43128 1.9386 3.19685V5.92763C1.9386 6.18503 2.14726 6.3937 2.40467 6.3937C2.807 6.3937 3.02702 6.87539 2.7835 7.19565C1.04017 9.48833 0 12.3821 0 15.5276C0 22.9682 5.8203 29 13 29C20.1797 29 26 22.9682 26 15.5276C26 12.3821 24.9598 9.48833 23.2165 7.19565C22.973 6.87539 23.193 6.3937 23.5953 6.3937C23.8527 6.3937 24.0614 6.18503 24.0614 5.92763V3.19685Z" fill="#F2F2F2"/>
</svg>
