<?xml version="1.0" encoding="UTF-8" standalone="no"?>
<svg
   xmlns:dc="http://purl.org/dc/elements/1.1/"
   xmlns:cc="http://creativecommons.org/ns#"
   xmlns:rdf="http://www.w3.org/1999/02/22-rdf-syntax-ns#"
   xmlns:svg="http://www.w3.org/2000/svg"
   xmlns="http://www.w3.org/2000/svg"
   xmlns:sodipodi="http://sodipodi.sourceforge.net/DTD/sodipodi-0.dtd"
   xmlns:inkscape="http://www.inkscape.org/namespaces/inkscape"
   width="254"
   height="254"
   viewBox="0 0 254 254"
   fill="none"
   version="1.1"
   id="svg51"
   sodipodi:docname="JarSquareRatio.svg"
   inkscape:export-filename="E:\Programming\nextjs-blog\public\icons\Jar-192x192.png"
   inkscape:export-xdpi="72.566933"
   inkscape:export-ydpi="72.566933"
   inkscape:version="1.0.2 (e86c870879, 2021-01-15, custom)">
  <metadata
     id="metadata55">
    <rdf:RDF>
      <cc:Work
         rdf:about="">
        <dc:format>image/svg+xml</dc:format>
        <dc:type
           rdf:resource="http://purl.org/dc/dcmitype/StillImage" />
        <dc:title></dc:title>
      </cc:Work>
    </rdf:RDF>
  </metadata>
  <sodipodi:namedview
     pagecolor="#ffffff"
     bordercolor="#666666"
     borderopacity="1"
     objecttolerance="10"
     gridtolerance="10"
     guidetolerance="10"
     inkscape:pageopacity="0"
     inkscape:pageshadow="2"
     inkscape:window-width="640"
     inkscape:window-height="480"
     id="namedview53"
     showgrid="false"
     inkscape:zoom="2.4776576"
     inkscape:cx="106.65114"
     inkscape:cy="158.97455"
     inkscape:current-layer="svg51" />
  <g
     filter="url(#filter0_bii)"
     id="g4"
     transform="translate(13.319032,0.40360702)">
    <path
       d="M 211,28 C 211,12.536 198.464,0 183,0 H 45 C 29.536,0 17,12.536 17,28 V 51.9152 C 17,54.1712 18.8288,56 21.0848,56 c 3.5274,0 5.4555,4.2243 3.319,7.031 C 9.1194,83.1106 0,108.453 0,136 0,201.17 51.0395,254 114,254 176.96,254 228,201.17 228,136 228,108.453 218.881,83.1106 203.596,63.031 201.46,60.2243 203.388,56 206.915,56 209.171,56 211,54.1712 211,51.9152 Z"
       fill="#f06780"
       fill-opacity="0.14"
       id="path2" />
  </g>
  <path
     d="m 81.740632,214.45161 c -3.7822,-3.998 -0.7418,-10.564 4.7534,-10.266 2.3447,0.128 4.5536,-1.105 5.6771,-3.166 2.633198,-4.833 9.817398,-3.97 11.231798,1.348 0.6035,2.269 2.458,3.989 4.7661,4.421 5.41,1.011 6.809,8.11 2.1883,11.099 -1.9717,1.275 -3.0345,3.57 -2.7316,5.898 0.7102,5.458 -5.609,8.983 -9.8794,5.511 -1.822,-1.481 -4.333298,-1.782 -6.454198,-0.775 -4.9708,2.362 -10.2759,-2.558 -8.294,-7.693 0.8455,-2.19 0.3563,-4.672 -1.2575,-6.377 z"
     fill="#c6cef8"
     id="path6" />
  <path
     d="m 160.11603,195.54061 c 2.742,-4.771 9.905,-3.746 11.199,1.603 0.551,2.283 2.366,4.044 4.664,4.528 5.386,1.133 6.624,8.262 1.936,11.145 -2,1.231 -3.115,3.501 -2.864,5.836 0.586,5.472 -5.812,8.853 -10.002,5.285 -1.788,-1.522 -4.292,-1.88 -6.435,-0.921 -5.023,2.249 -10.215,-2.791 -8.118,-7.879 0.895,-2.171 0.462,-4.663 -1.112,-6.405 -3.691,-4.082 -0.502,-10.577 4.985,-10.155 2.341,0.181 4.577,-1.001 5.747,-3.037 z"
     fill="#e3f863"
     id="path8" />
  <path
     d="m 43.634732,179.73461 c -1.5013,-5.295 4.2339,-9.707 8.9664,-6.898 2.0192,1.199 4.5476,1.13 6.4981,-0.178 4.5716,-3.064 10.5398,1.028 9.3308,6.396 -0.5159,2.291 0.3313,4.674 2.1774,6.125 4.3266,3.401 2.28,10.342 -3.1997,10.851 -2.3381,0.217 -4.3429,1.759 -5.1525,3.964 -1.8975,5.165 -9.1306,5.364 -11.3082,0.31 -0.9291,-2.157 -3.0154,-3.587 -5.3618,-3.676 -5.4994,-0.208 -7.923,-7.026 -3.7892,-10.659 1.7638,-1.55 2.4792,-3.976 1.8387,-6.235 z"
     fill="#7bff65"
     id="path10" />
  <path
     d="m 130.76003,169.81961 c 3.861,-3.922 10.53,-1.117 10.427,4.386 -0.043,2.347 1.266,4.511 3.367,5.561 4.923,2.46 4.316,9.67 -0.949,11.272 -2.246,0.684 -3.899,2.598 -4.249,4.92 -0.818,5.442 -7.863,7.093 -11.014,2.581 -1.344,-1.925 -3.676,-2.905 -5.992,-2.52 -5.428,0.904 -9.1756,-5.286 -5.858,-9.677 1.415,-1.874 1.628,-4.394 0.545,-6.478 -2.537,-4.884 2.192,-10.36 7.394,-8.562 2.219,0.767 4.681,0.19 6.329,-1.483 z"
     fill="#e751bd"
     id="path12" />
  <path
     d="m 192.13703,172.66561 c 0.225,-5.498 7.05,-7.901 10.671,-3.756 1.544,1.768 3.968,2.491 6.229,1.857 5.299,-1.485 9.694,4.263 6.87,8.987 -1.204,2.016 -1.143,4.545 0.159,6.499 3.05,4.581 -1.059,10.537 -6.425,9.311 -2.289,-0.522 -4.675,0.318 -6.131,2.159 -3.414,4.316 -10.349,2.249 -10.841,-3.232 -0.21,-2.339 -1.746,-4.349 -3.948,-5.165 -5.16,-1.913 -5.336,-9.147 -0.276,-11.309 2.16,-0.923 3.596,-3.005 3.692,-5.351 z"
     fill="#e75187"
     id="path14" />
  <defs
     id="defs49">
    <filter
       id="filter0_bii"
       x="-16.0667"
       y="-16.0667"
       width="260.133"
       height="286.133"
       filterUnits="userSpaceOnUse"
       color-interpolation-filters="sRGB">
      <feFlood
         flood-opacity="0"
         result="BackgroundImageFix"
         id="feFlood16" />
      <feGaussianBlur
         in="BackgroundImage"
         stdDeviation="1.28533"
         id="feGaussianBlur18" />
      <feComposite
         in2="SourceAlpha"
         operator="in"
         result="effect1_backgroundBlur"
         id="feComposite20" />
      <feBlend
         mode="normal"
         in="SourceGraphic"
         in2="effect1_backgroundBlur"
         result="shape"
         id="feBlend22" />
      <feColorMatrix
         in="SourceAlpha"
         type="matrix"
         values="0 0 0 0 0 0 0 0 0 0 0 0 0 0 0 0 0 0 127 0"
         result="hardAlpha"
         id="feColorMatrix24" />
      <feOffset
         dx="-16.0667"
         dy="16.0667"
         id="feOffset26" />
      <feGaussianBlur
         stdDeviation="8.03333"
         id="feGaussianBlur28" />
      <feComposite
         in2="hardAlpha"
         operator="arithmetic"
         k2="-1"
         k3="1"
         id="feComposite30"
         k1="0"
         k4="0" />
      <feColorMatrix
         type="matrix"
         values="0 0 0 0 1 0 0 0 0 1 0 0 0 0 1 0 0 0 0.14 0"
         id="feColorMatrix32" />
      <feBlend
         mode="normal"
         in2="shape"
         result="effect2_innerShadow"
         id="feBlend34" />
      <feColorMatrix
         in="SourceAlpha"
         type="matrix"
         values="0 0 0 0 0 0 0 0 0 0 0 0 0 0 0 0 0 0 127 0"
         result="hardAlpha"
         id="feColorMatrix36" />
      <feOffset
         dx="16.0667"
         dy="-16.0667"
         id="feOffset38" />
      <feGaussianBlur
         stdDeviation="8.03333"
         id="feGaussianBlur40" />
      <feComposite
         in2="hardAlpha"
         operator="arithmetic"
         k2="-1"
         k3="1"
         id="feComposite42"
         k1="0"
         k4="0" />
      <feColorMatrix
         type="matrix"
         values="0 0 0 0 0.715667 0 0 0 0 0.30714 0 0 0 0 0.380675 0 0 0 0.14 0"
         id="feColorMatrix44" />
      <feBlend
         mode="normal"
         in2="effect2_innerShadow"
         result="effect3_innerShadow"
         id="feBlend46" />
    </filter>
  </defs>
</svg>
