<svg width="15" height="29" viewBox="0 0 15 29" fill="none" xmlns="http://www.w3.org/2000/svg">
<g clip-path="url(#clip0)" filter="url(#filter0_d)">
<path d="M14.3138 26.5399H2.68606C2.68606 26.5399 0.773584 10.9832 8.49991 10.9832C16.2262 10.9832 14.3138 26.5399 14.3138 26.5399V26.5399Z" fill="white"/>
<path d="M14.3137 27.0001H2.68628C2.44842 27.0001 2.24775 26.8261 2.21928 26.5945C2.16785 26.1741 0.995046 16.2484 4.64937 12.2136C5.66558 11.0913 6.96099 10.5225 8.49977 10.5225C10.0386 10.5225 11.3344 11.0913 12.3506 12.2136C16.005 16.2484 14.8322 26.1741 14.7807 26.5945C14.7523 26.8261 14.5516 27.0001 14.3137 27.0001ZM3.11105 26.0792H13.889C14.068 24.1785 14.6283 16.1157 11.6467 12.8242C10.805 11.8948 9.77543 11.4434 8.49977 11.4434C7.22411 11.4434 6.19504 11.8948 5.35332 12.8238C2.37173 16.1153 2.93196 24.1785 3.11105 26.0792V26.0792Z" fill="white"/>
<path d="M8.49991 9.24984C10.9786 9.24984 12.988 7.28222 12.988 4.85503C12.988 2.42783 10.9786 0.460205 8.49991 0.460205C6.02119 0.460205 4.0118 2.42783 4.0118 4.85503C4.0118 7.28222 6.02119 9.24984 8.49991 9.24984Z" fill="white"/>
<path d="M8.49977 9.71031C5.76615 9.71031 3.54178 7.53218 3.54178 4.85493C3.54178 2.17813 5.76615 0 8.49977 0C11.2339 0 13.4582 2.17813 13.4582 4.85493C13.4582 7.53218 11.2339 9.71031 8.49977 9.71031ZM8.49977 0.920894C6.28459 0.920894 4.48222 2.68579 4.48222 4.85493C4.48222 7.02452 6.28459 8.78941 8.49977 8.78941C10.7154 8.78941 12.5178 7.02452 12.5178 4.85493C12.5178 2.68579 10.7154 0.920894 8.49977 0.920894V0.920894Z" fill="white"/>
</g>
<defs>
<filter id="filter0_d" x="0" y="0" width="15" height="29" filterUnits="userSpaceOnUse" color-interpolation-filters="sRGB">
<feFlood flood-opacity="0" result="BackgroundImageFix"/>
<feColorMatrix in="SourceAlpha" type="matrix" values="0 0 0 0 0 0 0 0 0 0 0 0 0 0 0 0 0 0 127 0"/>
<feOffset dx="-1" dy="1"/>
<feGaussianBlur stdDeviation="0.5"/>
<feColorMatrix type="matrix" values="0 0 0 0 0 0 0 0 0 0 0 0 0 0 0 0 0 0 0.25 0"/>
<feBlend mode="normal" in2="BackgroundImageFix" result="effect1_dropShadow"/>
<feBlend mode="normal" in="SourceGraphic" in2="effect1_dropShadow" result="shape"/>
</filter>
<clipPath id="clip0">
<rect width="13" height="27" fill="white" transform="translate(2)"/>
</clipPath>
</defs>
</svg>
