<svg width="34" height="34" viewBox="0 0 34 34" fill="none" xmlns="http://www.w3.org/2000/svg">
<path d="M2.42161 17.0476C-1.36061 13.05 1.67981 6.48395 7.17502 6.78226C9.51968 6.90955 11.7286 5.67738 12.8521 3.61551C15.4853 -1.21694 22.6695 -0.354339 24.0839 4.9641C24.6874 7.23334 26.5419 8.9534 28.85 9.38477C34.2597 10.3958 35.6593 17.4949 31.0383 20.4836C29.0666 21.7588 28.0038 24.054 28.3067 26.3825C29.0169 31.8398 22.6977 35.3647 18.4273 31.8933C16.6053 30.4122 14.094 30.1107 11.9731 31.1184C7.00233 33.4801 1.69722 28.5595 3.67905 23.4254C4.52464 21.2349 4.03538 18.7533 2.42161 17.0476Z" fill="#C6CEF8"/>
</svg>
